<svg width="209" height="88" viewBox="0 0 209 88" fill="none" xmlns="http://www.w3.org/2000/svg">
<mask id="mask0" mask-type="alpha" maskUnits="userSpaceOnUse" x="0" y="0" width="88" height="88">
<path fill-rule="evenodd" clip-rule="evenodd" d="M44 0C19.6995 0 0 19.6995 0 44V44C0 68.3005 19.6995 88 44 88V88C68.3005 88 88 68.3005 88 44V44C88 19.6995 68.3005 0 44 0Z" fill="white"/>
</mask>
<g mask="url(#mask0)">
<path fill-rule="evenodd" clip-rule="evenodd" d="M44 0C19.6995 0 0 19.6995 0 44V44C0 68.3005 19.6995 88 44 88V88C68.3005 88 88 68.3005 88 44V44C88 19.6995 68.3005 0 44 0Z" fill="url(#paint0_linear)"/>
</g>
<path fill-rule="evenodd" clip-rule="evenodd" d="M114.575 50.8928H109.318C109.117 50.8928 109.002 50.7784 109.002 50.5768V39.5218C109.002 39.1192 108.773 38.8896 108.371 38.8896H106.561C106.159 38.8896 105.929 39.1192 105.929 39.5218V52.4908C105.929 53.2945 106.389 53.7543 107.193 53.7543H114.575C114.977 53.7543 115.207 53.5248 115.207 53.1222V51.525C115.207 51.1224 114.977 50.8928 114.575 50.8928" fill="#28646E"/>
<path fill-rule="evenodd" clip-rule="evenodd" d="M191.937 44.646H189.904C189.514 44.646 189.291 44.8755 189.291 45.2774V49.2741V49.8189V53.1226C189.291 53.5245 189.514 53.7547 189.904 53.7547H191.937C192.327 53.7547 192.55 53.5245 192.55 53.1226V49.8189V49.2741V45.2774C192.55 44.8755 192.327 44.646 191.937 44.646" fill="#28646E"/>
<path fill-rule="evenodd" clip-rule="evenodd" d="M189.977 42.602C190.149 42.4971 190.121 42.3182 190.103 42.1781C190.014 41.4785 189.328 38.4982 189.118 37.8866C189.012 37.5801 188.822 37.5053 188.595 37.5478C188.297 37.6058 187.908 37.8001 187.298 38.1682C186.688 38.5371 186.334 38.7908 186.145 39.0284C186.002 39.2081 185.979 39.4112 186.202 39.6481C186.645 40.1182 188.962 42.1143 189.539 42.5184C189.656 42.5998 189.8 42.7083 189.973 42.6042L189.977 42.602Z" fill="#28646E"/>
<path fill-rule="evenodd" clip-rule="evenodd" d="M191.772 38.6611C191.95 38.7557 192.089 38.6406 192.2 38.5526C192.867 38.0319 194.791 36.2081 195.382 35.5092C195.592 35.2614 195.559 35.0604 195.406 34.8874C195.205 34.6608 194.838 34.4261 194.21 34.0902C193.58 33.7551 193.182 33.5806 192.881 33.5402C192.653 33.5087 192.467 33.593 192.377 33.9054C192.2 34.5266 191.672 37.5391 191.62 38.2424C191.609 38.3839 191.59 38.5636 191.768 38.6589L191.772 38.6611Z" fill="#28646E"/>
<path fill-rule="evenodd" clip-rule="evenodd" d="M123.243 44.646H121.21C120.819 44.646 120.596 44.8755 120.596 45.2774V49.2741V49.8189V53.1226C120.596 53.5245 120.819 53.7547 121.21 53.7547H123.243C123.633 53.7547 123.856 53.5245 123.856 53.1226V49.8189V49.2741V45.2774C123.856 44.8755 123.633 44.646 123.243 44.646" fill="#28646E"/>
<path fill-rule="evenodd" clip-rule="evenodd" d="M121.283 42.602C121.455 42.4971 121.427 42.3182 121.409 42.1781C121.32 41.4785 120.634 38.4982 120.423 37.8866C120.318 37.5801 120.127 37.5053 119.901 37.5478C119.603 37.6058 119.214 37.8001 118.604 38.1682C117.993 38.5371 117.64 38.7908 117.45 39.0284C117.307 39.2081 117.285 39.4112 117.508 39.6481C117.951 40.1182 120.267 42.1143 120.845 42.5184C120.962 42.5998 121.106 42.7083 121.279 42.6042L121.283 42.602Z" fill="#28646E"/>
<path fill-rule="evenodd" clip-rule="evenodd" d="M123.077 38.6611C123.256 38.7557 123.395 38.6406 123.506 38.5526C124.172 38.0319 126.097 36.2081 126.688 35.5092C126.897 35.2614 126.865 35.0604 126.712 34.8874C126.51 34.6608 126.144 34.4261 125.515 34.0902C124.887 33.7551 124.488 33.5806 124.186 33.5402C123.958 33.5087 123.773 33.593 123.683 33.9054C123.505 34.5266 122.977 37.5391 122.925 38.2424C122.915 38.3839 122.896 38.5636 123.074 38.6589L123.077 38.6611Z" fill="#28646E"/>
<path fill-rule="evenodd" clip-rule="evenodd" d="M139.845 53.7431H138.034C137.633 53.7431 137.402 53.5136 137.402 53.1117V50.4387C137.402 49.4333 136.656 48.3707 135.305 48.3707C133.955 48.3707 133.208 49.4333 133.208 50.4387V53.1117C133.208 53.5136 132.977 53.7431 132.576 53.7431H130.766C130.363 53.7431 130.133 53.5136 130.133 53.1117V39.7907C130.133 39.3881 130.363 39.1578 130.766 39.1578H132.576C132.977 39.1578 133.208 39.3881 133.208 39.7907V45.4396C133.208 45.6691 133.38 45.8708 133.667 45.8708C133.918 45.8708 134.27 45.6405 134.472 45.3252L136.908 41.734C137.202 41.3278 137.454 41.1305 137.856 41.1305H139.96C140.42 41.1305 140.65 41.5045 140.391 41.9056L137.661 45.6119C137.517 45.8422 137.489 46.0431 137.834 46.2147C139.27 46.9048 140.477 48.4565 140.477 50.4387V53.1117C140.477 53.5136 140.247 53.7431 139.845 53.7431" fill="#28646E"/>
<path fill-rule="evenodd" clip-rule="evenodd" d="M152.011 45.8662C152.011 46.0562 151.902 46.1647 151.712 46.1647H148.34C148.149 46.1647 148.04 46.0562 148.04 45.8662V45.3764C148.04 44.4245 148.747 43.4184 150.026 43.4184C151.304 43.4184 152.011 44.4245 152.011 45.3764V45.8662ZM150.026 40.8348C147.089 40.8348 145.131 42.9556 145.131 45.3764V49.4009C145.131 51.8216 147.089 53.9432 150.026 53.9432C152.702 53.9432 153.729 52.6796 154.252 51.6258C154.343 51.441 154.415 51.0274 154.088 50.8104L152.81 49.967C152.512 49.7771 152.185 49.8042 151.995 50.1027C151.478 50.9732 150.876 51.3589 150.026 51.3589C148.747 51.3589 148.04 50.3528 148.04 49.4009V48.9118C148.04 48.7218 148.149 48.6126 148.34 48.6126H153.724C154.486 48.6126 154.921 48.177 154.921 47.4158V45.3764C154.921 42.9556 152.963 40.8348 150.026 40.8348V40.8348Z" fill="#28646E"/>
<path fill-rule="evenodd" clip-rule="evenodd" d="M165.074 41.3531C166.324 41.3531 166.834 42.1766 167.374 43.0845C167.572 43.3976 167.913 43.4255 168.226 43.2275L169.561 42.3468C169.902 42.1194 169.816 41.6941 169.731 41.4946C169.191 40.1042 167.601 38.6559 165.074 38.6559C162.007 38.6559 159.963 40.8706 159.963 43.3976V49.2012C159.963 51.7276 162.007 53.943 165.074 53.943C167.601 53.943 169.191 52.4946 169.731 51.1035C169.816 50.904 169.902 50.4787 169.561 50.2514L168.226 49.3714C167.913 49.1726 167.572 49.2012 167.374 49.5136C166.834 50.4215 166.324 51.245 165.074 51.245C163.74 51.245 163.002 50.1949 163.002 49.2012V43.3976C163.002 42.404 163.74 41.3531 165.074 41.3531" fill="#28646E"/>
<path fill-rule="evenodd" clip-rule="evenodd" d="M180.639 49.4011C180.639 50.353 179.932 51.3591 178.654 51.3591C177.376 51.3591 176.668 50.353 176.668 49.4011V45.5137C176.668 44.5618 177.376 43.5557 178.654 43.5557C179.932 43.5557 180.639 44.5618 180.639 45.5137V49.4011ZM178.654 40.9722C175.717 40.9722 173.759 43.093 173.759 45.5137V49.4011C173.759 51.8218 175.717 53.9426 178.654 53.9426C181.591 53.9426 183.549 51.8218 183.549 49.4011V45.5137C183.549 43.093 181.591 40.9722 178.654 40.9722V40.9722Z" fill="#28646E"/>
<path fill-rule="evenodd" clip-rule="evenodd" d="M203.829 40.9807C202.824 40.9807 202.077 41.2396 201.33 41.6414C201.216 41.6986 201.072 41.728 200.928 41.5263C200.813 41.3547 200.641 41.2689 200.411 41.2689H199.292C198.889 41.2689 198.659 41.4977 198.659 41.9003V53.1225C198.659 53.5244 198.889 53.7546 199.292 53.7546H201.101C201.503 53.7546 201.733 53.5244 201.733 53.1225V45.7774C201.733 44.7728 202.479 43.7102 203.829 43.7102C205.179 43.7102 205.926 44.7728 205.926 45.7774V53.1225C205.926 53.5244 206.156 53.7546 206.558 53.7546H208.367C208.77 53.7546 208.999 53.5244 208.999 53.1225V45.7774C208.999 43.2218 206.931 40.9807 203.829 40.9807" fill="#28646E"/>
<path fill-rule="evenodd" clip-rule="evenodd" d="M44 6.24189C23.1799 6.24189 6.24213 23.1804 6.24213 43.9998C6.24213 64.8198 23.1799 81.7584 44 81.7584C64.8201 81.7584 81.7579 64.8198 81.7579 43.9998C81.7579 23.1804 64.8201 6.24189 44 6.24189M44 85.2498C21.2549 85.2498 2.75 66.7456 2.75 43.9998C2.75 21.2547 21.2549 2.74976 44 2.74976C66.7451 2.74976 85.25 21.2547 85.25 43.9998C85.25 66.7456 66.7451 85.2498 44 85.2498" fill="#28646E"/>
<path fill-rule="evenodd" clip-rule="evenodd" d="M41.273 36.4646C40.9482 36.4646 40.6248 36.3297 40.3923 36.0671C39.964 35.5809 40.011 34.8395 40.4964 34.4113C43.8096 31.4911 45.2748 29.0836 45.5352 28.6297C46.5098 26.9327 48.0747 26.0542 49.7181 26.2779C50.3605 26.3659 50.81 26.9569 50.722 27.5986C50.6348 28.2403 50.0452 28.692 49.4013 28.6025C48.4428 28.4742 47.8012 29.3953 47.5694 29.7986C47.2776 30.3075 45.6378 33.0069 42.0489 36.1713C41.8252 36.3678 41.5488 36.4646 41.273 36.4646" fill="#28646E"/>
<path fill-rule="evenodd" clip-rule="evenodd" d="M21.5252 56.3478C21.1893 56.3478 20.8549 56.204 20.6239 55.9261C20.2089 55.4282 20.2756 54.6882 20.7735 54.2732C21.9351 53.3059 24.2862 51.7901 25.0907 51.3875C25.6707 51.0978 26.3747 51.3332 26.6651 51.9126C26.9548 52.4919 26.7194 53.1966 26.1401 53.487C25.5329 53.7906 23.3138 55.2104 22.2754 56.0757C22.0561 56.2583 21.7899 56.3478 21.5252 56.3478" fill="#28646E"/>
<path fill-rule="evenodd" clip-rule="evenodd" d="M51.0185 45.2181C51.4849 45.6544 52.0261 45.4667 52.5226 44.9922C55.9216 41.7435 59.5223 36.6689 60.7198 34.0274C60.975 33.4642 61.4949 33.1496 62.0508 33.374C62.7049 33.6365 62.6939 34.7607 62.1036 35.9832C60.5387 39.2165 58.3541 42.7775 54.0531 47.2296C53.6395 47.6579 53.6996 48.2218 54.0721 48.5569C54.4513 48.8994 55.068 48.8759 55.6437 48.2893C57.8781 46.0108 59.3807 44.2405 60.6743 42.4204C61.0051 41.9386 61.4055 41.7538 61.8029 41.8337C62.3669 41.9467 62.4571 42.4879 62.284 43.142C62.0046 44.1973 59.0353 48.0905 57.862 49.3988C54.6735 52.9555 51.4849 54.9039 45.3484 58.0925C43.2078 59.2042 41.6055 60.2719 40.6338 61.9124C39.7516 63.4018 39.4876 63.8895 39.3967 64.0779C39.0469 64.8017 39.3255 65.7162 40.0508 66.0631C40.2532 66.1599 40.4659 66.2046 40.6741 66.2046C41.241 66.2046 41.7793 65.868 42.0095 65.3114C42.0176 65.2923 41.9626 65.3349 43.1183 63.3835C43.6757 62.4426 44.8805 61.0419 46.7322 60.1979C52.8687 57.4002 55.3826 55.1877 58.9451 51.6245C60.5687 50.0001 62.8149 46.5183 63.4265 45.4887C65.1411 42.6008 64.2413 40.1265 62.6939 39.7056C62.5663 39.6719 62.5033 39.5289 62.57 39.4145C63.7683 37.3589 64.3146 35.9414 64.5397 34.8399C64.8448 33.3461 64.4217 31.5311 62.3705 31.0889C62.2613 31.0655 62.196 30.9533 62.2253 30.8447C62.3544 30.371 62.482 29.7733 62.5693 29.3803C62.9997 27.4399 61.7729 25.6799 60.2981 25.3645C59.2612 25.1423 58.3387 25.3799 57.532 25.9417C57.4198 26.0194 57.2695 25.9981 57.1756 25.8977C56.8573 25.5559 56.3462 25.1966 55.6437 25.1841C54.3574 25.1614 53.0939 25.5559 52.1691 27.5308C51.5077 28.9447 50.5221 30.8396 47.6342 34.0428C44.9568 37.0135 41.2271 39.9087 38.9259 41.4201C38.5225 41.6856 37.9564 41.6233 38.0239 41.0813C38.1317 40.2211 39.0549 34.4381 39.2119 32.7345C39.4678 29.9669 37.9784 28.7034 36.3093 28.4783C34.9351 28.292 32.8502 28.6887 31.7069 31.8171C31.0367 33.6505 29.6404 36.6637 28.4583 41.5177C27.6267 44.9313 27.4888 48.9119 28.25 53.4849C28.2955 53.7614 28.2441 54.0452 28.0989 54.2843C27.1881 55.7839 25.8535 57.7581 25.1091 59.477C24.8107 60.1678 25.0607 61.0001 25.7207 61.3602C25.9429 61.4812 26.1805 61.5377 26.4137 61.5377C26.9557 61.5377 27.4749 61.2319 27.7213 60.709C28.1613 59.7762 29.0735 58.0221 29.4307 57.2939C30.0511 56.0259 30.461 55.1885 30.6289 54.6619C30.7822 54.1801 30.8724 53.6235 30.5952 52.3578C30.1273 50.226 29.9645 46.2227 30.8335 42.6947C31.9863 38.0116 33.9421 32.7778 34.2905 31.9132C34.6395 31.0501 35.136 30.7795 35.6325 30.8242C36.1289 30.8697 37.0764 31.1102 36.8058 32.8695C36.3189 36.0323 35.6325 40.0437 35.4066 41.3974C35.2966 42.0603 35.169 43.6091 36.3922 44.3175C37.347 44.8719 38.3971 44.5632 39.558 43.7888C42.1694 42.0457 46.6713 38.4978 49.4998 35.3217C52.4676 31.988 53.4136 30.0029 54.177 28.2077C54.5253 27.3893 55.4178 27.3951 55.7339 27.4853C56.0492 27.5755 56.4327 28.0038 56.1621 28.9065C55.5051 31.0985 52.7932 36.1189 47.5741 40.8261C46.9823 41.36 47.0659 41.9914 47.368 42.3199C47.6518 42.6294 48.2011 42.8479 48.8075 42.3302C53.5001 38.3291 56.1775 33.5463 57.3809 30.9899C57.9823 29.711 58.2096 28.9513 58.4113 28.3653C58.6665 27.621 59.2385 27.357 59.6367 27.4406C60.2079 27.5609 60.5841 28.1475 60.4037 29.1097C60.2468 29.9471 59.7657 31.3148 59.1255 32.6744C57.6215 35.8666 54.4454 40.1383 51.0185 43.8071C50.6519 44.1995 50.5668 44.7957 51.0185 45.2181" fill="#28646E"/>
<path fill-rule="evenodd" clip-rule="evenodd" d="M29.8074 29.3211C29.9892 29.1612 29.9181 28.9566 29.8675 28.7938C29.6145 27.9871 28.1742 24.6138 27.7973 23.9369C27.6074 23.5967 27.3676 23.549 27.1094 23.648C26.7692 23.7771 26.3512 24.0895 25.7088 24.6534C25.0664 25.2166 24.7026 25.5913 24.5288 25.9118C24.3976 26.1545 24.4144 26.3995 24.7268 26.6312C25.3487 27.0932 28.5057 28.9595 29.2728 29.3152C29.4275 29.3871 29.6218 29.4839 29.803 29.3247L29.8074 29.3211Z" fill="#28646E"/>
<path fill-rule="evenodd" clip-rule="evenodd" d="M22.9188 30.454C22.5294 30.4386 22.3637 30.6198 22.3138 30.8918C22.2478 31.2497 22.2977 31.7689 22.4451 32.6108C22.5932 33.4534 22.7237 33.9579 22.9071 34.2725C23.0464 34.5108 23.2642 34.6245 23.6243 34.4771C24.3422 34.186 27.5777 32.459 28.2802 31.9882C28.4217 31.8936 28.6058 31.7784 28.564 31.5394L28.5625 31.535" fill="#28646E"/>
<path fill-rule="evenodd" clip-rule="evenodd" d="M55.8246 59.1679C55.5833 59.1841 55.5151 59.3909 55.4572 59.55C55.1675 60.3449 54.2619 63.8987 54.1504 64.6657C54.0947 65.0507 54.256 65.2348 54.5207 65.3133C54.8698 65.4167 55.3919 65.4225 56.2448 65.3653C57.0977 65.3081 57.6132 65.2326 57.9461 65.0823C58.1977 64.9693 58.3333 64.7655 58.2263 64.3907C58.0121 63.6457 56.6386 60.2459 56.2455 59.4972C56.1663 59.3469 56.071 59.1518 55.8297 59.1679H55.8246Z" fill="#28646E"/>
<path fill-rule="evenodd" clip-rule="evenodd" d="M57.876 57.5208C57.7646 57.7349 57.9054 57.9007 58.0117 58.0334C58.5397 58.6934 61.1056 61.3136 61.7026 61.8079C62.0025 62.0565 62.2445 62.0132 62.4491 61.8277C62.719 61.5827 62.9947 61.1413 63.3892 60.3815C63.7838 59.6233 63.9869 59.1429 64.0316 58.7821C64.0661 58.5079 63.962 58.2857 63.5865 58.1823C62.8392 57.9784 59.2202 57.3844 58.3762 57.3316C58.206 57.3213 57.9897 57.3008 57.8782 57.5157L57.876 57.5208Z" fill="#28646E"/>
<path fill-rule="evenodd" clip-rule="evenodd" d="M45.3092 77.2677C45.3092 77.9901 44.7232 78.576 44.0002 78.576C43.2771 78.576 42.6912 77.9901 42.6912 77.2677C42.6912 76.5447 43.2771 75.9587 44.0002 75.9587C44.7232 75.9587 45.3092 76.5447 45.3092 77.2677" fill="#28646E"/>
<path fill-rule="evenodd" clip-rule="evenodd" d="M45.3092 10.7321C45.3092 11.4552 44.7232 12.0411 44.0002 12.0411C43.2771 12.0411 42.6912 11.4552 42.6912 10.7321C42.6912 10.0098 43.2771 9.42383 44.0002 9.42383C44.7232 9.42383 45.3092 10.0098 45.3092 10.7321" fill="#28646E"/>
<path fill-rule="evenodd" clip-rule="evenodd" d="M53.8744 75.7954C54.0614 76.4935 53.6471 77.2114 52.949 77.3984C52.2508 77.5847 51.5329 77.1711 51.3459 76.473C51.1589 75.7748 51.5732 75.0569 52.2714 74.8692C52.9695 74.6822 53.6874 75.0972 53.8744 75.7954" fill="#28646E"/>
<path fill-rule="evenodd" clip-rule="evenodd" d="M36.654 11.527C36.841 12.2251 36.4267 12.9431 35.7285 13.1308C35.0304 13.3171 34.3125 12.9027 34.1255 12.2046C33.9385 11.5065 34.3528 10.7885 35.0509 10.6015C35.7491 10.4145 36.467 10.8289 36.654 11.527" fill="#28646E"/>
<path fill-rule="evenodd" clip-rule="evenodd" d="M61.7672 72.1559C62.1287 72.7822 61.9146 73.5823 61.2883 73.9438C60.662 74.3061 59.862 74.0912 59.5004 73.4649C59.1389 72.8394 59.353 72.0386 59.9793 71.6771C60.6056 71.3155 61.4056 71.5297 61.7672 72.1559" fill="#28646E"/>
<path fill-rule="evenodd" clip-rule="evenodd" d="M28.4996 14.5348C28.8611 15.1611 28.647 15.9612 28.0207 16.3227C27.3945 16.685 26.5937 16.4701 26.2329 15.8438C25.8713 15.2183 26.0855 14.4175 26.7117 14.056C27.338 13.6944 28.1381 13.9086 28.4996 14.5348" fill="#28646E"/>
<path fill-rule="evenodd" clip-rule="evenodd" d="M68.4491 66.5979C68.9603 67.109 68.9603 67.9377 68.4491 68.4488C67.938 68.9607 67.1093 68.9607 66.5982 68.4488C66.0871 67.9377 66.0871 67.109 66.5982 66.5979C67.1093 66.0875 67.938 66.0875 68.4491 66.5979" fill="#28646E"/>
<path fill-rule="evenodd" clip-rule="evenodd" d="M21.402 19.5507C21.9131 20.0618 21.9131 20.8905 21.402 21.4016C20.8909 21.9128 20.0622 21.9128 19.5511 21.4016C19.0399 20.8905 19.0399 20.0618 19.5511 19.5507C20.0622 19.0396 20.8909 19.0396 21.402 19.5507" fill="#28646E"/>
<path fill-rule="evenodd" clip-rule="evenodd" d="M73.4651 59.5002C74.0913 59.8617 74.3055 60.6618 73.9439 61.288C73.5824 61.9143 72.7823 62.1284 72.1561 61.7676C71.5298 61.4061 71.3157 60.6053 71.6772 59.979C72.0387 59.3535 72.8388 59.1386 73.4651 59.5002" fill="#28646E"/>
<path fill-rule="evenodd" clip-rule="evenodd" d="M15.844 26.2324C16.4702 26.5939 16.6844 27.3947 16.3228 28.0202C15.9613 28.6465 15.1612 28.8614 14.535 28.4998C13.9087 28.1383 13.6946 27.3382 14.0561 26.7112C14.4176 26.0857 15.2177 25.8716 15.844 26.2324" fill="#28646E"/>
<path fill-rule="evenodd" clip-rule="evenodd" d="M76.4729 51.3462C77.171 51.5332 77.5854 52.2504 77.3984 52.9492C77.2114 53.6474 76.4934 54.0617 75.7953 53.874C75.0972 53.687 74.6828 52.9698 74.8698 52.2716C75.0568 51.5735 75.7748 51.1584 76.4729 51.3462" fill="#28646E"/>
<path fill-rule="evenodd" clip-rule="evenodd" d="M12.2048 34.1257C12.903 34.3127 13.3173 35.0299 13.1303 35.7288C12.9433 36.4269 12.2254 36.8412 11.5272 36.6535C10.8291 36.4665 10.4148 35.7493 10.6018 35.0512C10.7888 34.353 11.5067 33.938 12.2048 34.1257" fill="#28646E"/>
<path fill-rule="evenodd" clip-rule="evenodd" d="M77.2675 42.6908C77.9906 42.6908 78.5765 43.2775 78.5765 43.9998C78.5765 44.7229 77.9906 45.3088 77.2675 45.3088C76.5452 45.3088 75.9585 44.7229 75.9585 43.9998C75.9585 43.2775 76.5452 42.6908 77.2675 42.6908" fill="#28646E"/>
<path fill-rule="evenodd" clip-rule="evenodd" d="M10.7326 42.6908C11.4557 42.6908 12.0416 43.2775 12.0416 43.9998C12.0416 44.7229 11.4557 45.3088 10.7326 45.3088C10.0095 45.3088 9.42358 44.7229 9.42358 43.9998C9.42358 43.2775 10.0095 42.6908 10.7326 42.6908" fill="#28646E"/>
<path fill-rule="evenodd" clip-rule="evenodd" d="M75.7953 34.1257C76.4934 33.938 77.2114 34.353 77.3984 35.0512C77.5854 35.7493 77.171 36.4665 76.4729 36.6535C75.7748 36.8412 75.0568 36.4269 74.8698 35.7288C74.6821 35.0299 75.0972 34.3127 75.7953 34.1257" fill="#28646E"/>
<path fill-rule="evenodd" clip-rule="evenodd" d="M11.5272 51.3462C12.2254 51.1584 12.9433 51.5735 13.1303 52.2716C13.3173 52.9698 12.903 53.687 12.2048 53.874C11.5067 54.0617 10.7888 53.6474 10.6018 52.9492C10.414 52.2504 10.8291 51.5332 11.5272 51.3462" fill="#28646E"/>
<path fill-rule="evenodd" clip-rule="evenodd" d="M72.1563 26.2324C72.7826 25.8716 73.5826 26.0857 73.9442 26.7112C74.3057 27.3382 74.0908 28.1383 73.4653 28.4998C72.839 28.8614 72.0382 28.6465 71.6774 28.0202C71.3159 27.3947 71.53 26.5939 72.1563 26.2324" fill="#28646E"/>
<path fill-rule="evenodd" clip-rule="evenodd" d="M14.5352 59.5002C15.1615 59.1386 15.9615 59.3535 16.3231 59.979C16.6846 60.6053 16.4697 61.4061 15.8442 61.7676C15.2179 62.1284 14.4171 61.9143 14.0563 61.288C13.6948 60.6618 13.9089 59.8617 14.5352 59.5002" fill="#28646E"/>
<path fill-rule="evenodd" clip-rule="evenodd" d="M66.5982 19.5507C67.1093 19.0396 67.938 19.0396 68.4491 19.5507C68.9603 20.0618 68.9603 20.8905 68.4491 21.4016C67.938 21.9128 67.1093 21.9128 66.5982 21.4016C66.0871 20.8905 66.0871 20.0618 66.5982 19.5507" fill="#28646E"/>
<path fill-rule="evenodd" clip-rule="evenodd" d="M19.5508 66.5979C20.062 66.0875 20.8906 66.0875 21.4018 66.5979C21.9129 67.109 21.9129 67.9377 21.4018 68.4488C20.8906 68.9607 20.062 68.9607 19.5508 68.4488C19.0397 67.9377 19.0397 67.109 19.5508 66.5979" fill="#28646E"/>
<path fill-rule="evenodd" clip-rule="evenodd" d="M59.5003 14.5348C59.8618 13.9086 60.6619 13.6944 61.2881 14.056C61.9144 14.4175 62.1285 15.2183 61.767 15.8438C61.4062 16.4701 60.6054 16.685 59.9791 16.3227C59.3536 15.9612 59.1387 15.1611 59.5003 14.5348" fill="#28646E"/>
<path fill-rule="evenodd" clip-rule="evenodd" d="M26.2327 72.1559C26.5942 71.5297 27.3943 71.3155 28.0206 71.6771C28.6468 72.0386 28.861 72.8394 28.4994 73.4649C28.1386 74.0912 27.3378 74.3061 26.7116 73.9438C26.086 73.5823 25.8712 72.7822 26.2327 72.1559" fill="#28646E"/>
<path fill-rule="evenodd" clip-rule="evenodd" d="M51.3462 11.527C51.5332 10.8289 52.2504 10.4145 52.9492 10.6015C53.6474 10.7885 54.0617 11.5065 53.8747 12.2046C53.6877 12.9027 52.9698 13.3171 52.2716 13.1308C51.5735 12.9431 51.1592 12.2251 51.3462 11.527" fill="#28646E"/>
<path fill-rule="evenodd" clip-rule="evenodd" d="M34.1255 75.7954C34.3125 75.0972 35.0304 74.6822 35.7285 74.8692C36.4267 75.0569 36.841 75.7748 36.654 76.473C36.467 77.1711 35.7491 77.5847 35.0509 77.3984C34.3528 77.2114 33.9385 76.4935 34.1255 75.7954" fill="#28646E"/>
<defs>
<linearGradient id="paint0_linear" x1="0" y1="88" x2="88" y2="88" gradientUnits="userSpaceOnUse">
<stop stop-color="#D1EFEF"/>
<stop offset="1" stop-color="#EFE6B3"/>
</linearGradient>
</defs>
</svg>
