<svg version="1.1" id="Layer_1" xmlns="http://www.w3.org/2000/svg" xmlns:xlink="http://www.w3.org/1999/xlink" x="0" y="0" viewBox="0 0 1549.4 480" style="enable-background:new 0 0 1549.4 480" xml:space="preserve"><style>.st11{fill-rule:evenodd;clip-rule:evenodd;fill:none;stroke:#28646e;stroke-width:28;stroke-linecap:round;stroke-miterlimit:10}</style><defs><path id="SVGID_1_" d="M166.9 107.7h222.2c11.7 0 21.2 9.5 21.2 21.2v222.2c0 11.7-9.5 21.2-21.2 21.2H166.9c-11.7 0-21.2-9.5-21.2-21.2V128.9c0-11.7 9.5-21.2 21.2-21.2z"/></defs><use xlink:href="#SVGID_1_" style="overflow:visible;fill:#28646e"/><clipPath id="SVGID_00000145736955722663149670000016423995608475904153_"><use xlink:href="#SVGID_1_" style="overflow:visible"/></clipPath><defs><filter id="Adobe_OpacityMaskFilter" filterUnits="userSpaceOnUse" x="145.7" y="107.5" width="264.7" height="265"><feColorMatrix values="1 0 0 0 0 0 1 0 0 0 0 0 1 0 0 0 0 0 1 0"/></filter></defs><mask maskUnits="userSpaceOnUse" x="145.7" y="107.5" width="264.7" height="265" id="SVGID_00000132050735520593039960000017646930253619744416_"><g style="filter:url(#Adobe_OpacityMaskFilter)"><defs><path id="SVGID_00000034080307030530149670000001077090982769702029_" d="M145.7 107.7h264.6v264.6H145.7z"/></defs><clipPath id="SVGID_00000062896267279338218020000001470353421692946349_" style="clip-path:url(#SVGID_00000145736955722663149670000016423995608475904153_)"><use xlink:href="#SVGID_00000034080307030530149670000001077090982769702029_" style="overflow:visible"/></clipPath><g style="clip-path:url(#SVGID_00000062896267279338218020000001470353421692946349_)"><image style="overflow:visible" width="200" height="200" xlink:href="5D18110789824580.png" transform="matrix(1.3229 0 0 -1.3229 145.713 372.29)"/></g></g></mask><g style="opacity:3.000000e-02;clip-path:url(#SVGID_00000145736955722663149670000016423995608475904153_);mask:url(#SVGID_00000132050735520593039960000017646930253619744416_)"><defs><filter id="Adobe_OpacityMaskFilter_00000062160667590483196710000006774597846131207609_" filterUnits="userSpaceOnUse" x="145.7" y="107.5" width="264.7" height="265"><feColorMatrix values="1 0 0 0 0 0 1 0 0 0 0 0 1 0 0 0 0 0 1 0"/></filter></defs><mask maskUnits="userSpaceOnUse" x="145.7" y="107.5" width="264.7" height="265" id="SVGID_00000132050735520593039960000017646930253619744416_"><g style="filter:url(#Adobe_OpacityMaskFilter_00000062160667590483196710000006774597846131207609_)"><path d="M144.7 106.7h266.6v266.6H144.7z"/><g style="enable-background:new"><defs><path id="SVGID_00000119827346235752098700000012052992889761218996_" d="M145.7 107.7h264.6v264.6H145.7z"/></defs><clipPath id="SVGID_00000059295131004107196860000007855714102433871511_"><use xlink:href="#SVGID_00000119827346235752098700000012052992889761218996_" style="overflow:visible"/></clipPath><defs><path id="SVGID_00000157281738106316014620000001994408532189312897_" d="M145.7 107.7h264.6v264.6H145.7z"/></defs><clipPath id="SVGID_00000148623134171705771430000000714644112506566826_" style="clip-path:url(#SVGID_00000059295131004107196860000007855714102433871511_)"><use xlink:href="#SVGID_00000157281738106316014620000001994408532189312897_" style="overflow:visible"/></clipPath><g style="clip-path:url(#SVGID_00000148623134171705771430000000714644112506566826_)"><image style="overflow:visible" width="200" height="200" xlink:href="5D18110789824581.png" transform="matrix(1.3229 0 0 -1.3229 145.713 372.29)"/></g></g></g></mask><g style="opacity:3.000000e-02"><defs><path id="SVGID_00000073689425409750847300000010697260048393531035_" d="M145.7 107.7h264.6v264.6H145.7z"/></defs><clipPath id="SVGID_00000124877945956502827140000004080583259345652145_"><use xlink:href="#SVGID_00000073689425409750847300000010697260048393531035_" style="overflow:visible"/></clipPath><defs><filter id="Adobe_OpacityMaskFilter_00000014611873947102916450000007020835386036848811_" filterUnits="userSpaceOnUse" x="145.7" y="107.5" width="264.7" height="265"><feColorMatrix values="1 0 0 0 0 0 1 0 0 0 0 0 1 0 0 0 0 0 1 0"/></filter></defs><mask maskUnits="userSpaceOnUse" x="145.7" y="107.5" width="264.7" height="265" id="SVGID_00000132050735520593039960000017646930253619744416_"><g style="filter:url(#Adobe_OpacityMaskFilter_00000014611873947102916450000007020835386036848811_)"><defs><path id="SVGID_00000088853579919677359540000008963048916675339699_" d="M145.7 107.7h264.6v264.6H145.7z"/></defs><clipPath id="SVGID_00000075143015569398542060000002615156181274712511_" style="clip-path:url(#SVGID_00000124877945956502827140000004080583259345652145_)"><use xlink:href="#SVGID_00000088853579919677359540000008963048916675339699_" style="overflow:visible"/></clipPath><g style="clip-path:url(#SVGID_00000075143015569398542060000002615156181274712511_)"><image style="overflow:visible" width="200" height="200" xlink:href="5D18110789824587.png" transform="matrix(1.3229 0 0 -1.3229 145.713 372.29)"/></g></g></mask><g style="clip-path:url(#SVGID_00000124877945956502827140000004080583259345652145_)"><image style="overflow:visible" width="1103" height="1104" xlink:href="5D18110789824580.jpg" transform="matrix(.24 0 0 .24 145.68 107.52)"/></g></g></g><g><defs><path id="SVGID_00000090256963911274029460000007571212128251727790_" d="M238.8 332.6v-82l77.6 82h43.1v-2.1l-89.2-93.4 82.3-88.6v-1.1h-43.4l-70.4 78.3v-78.3h-34.9v185.2z"/></defs><use xlink:href="#SVGID_00000090256963911274029460000007571212128251727790_" style="overflow:visible;fill:#fff"/><clipPath id="SVGID_00000105427937094931704440000017226783225709425792_"><use xlink:href="#SVGID_00000090256963911274029460000007571212128251727790_" style="overflow:visible"/></clipPath><path style="clip-path:url(#SVGID_00000105427937094931704440000017226783225709425792_);fill:#fff" d="M197.3 140.8h168.8v198.4H197.3z"/></g><g><path d="M612.1 320.7c44.6 0 80.8-36.3 80.7-80.9-.2-44.6-37-80.4-81.5-80.4h-10.4c-12.5 0-22.6 10.1-22.6 22.6v116.1c0 12.5 10.1 22.6 22.6 22.6h11.2z" style="fill-rule:evenodd;clip-rule:evenodd;fill:none;stroke:#28646e;stroke-width:34;stroke-miterlimit:10"/><path class="st11" d="M578.2 205.1h-88.6M578.2 274.9h-88.6"/></g><path d="M696.6 246.6c151.7 47.6 140.6-58.6 237.1-68.3 97-9.8 97 110.4 197.7 123.3 122.1 15.5 126.9-130.6 302.2-107.4" style="fill-rule:evenodd;clip-rule:evenodd;fill:none;stroke:#28646e;stroke-width:30;stroke-linecap:round;stroke-miterlimit:10"/></svg>