<?xml version="1.0" encoding="utf-8"?>
<!-- Generator: Adobe Illustrator 25.4.1, SVG Export Plug-In . SVG Version: 6.00 Build 0)  -->
<svg version="1.1" id="Layer_1" xmlns="http://www.w3.org/2000/svg" xmlns:xlink="http://www.w3.org/1999/xlink" x="0px" y="0px"
	 viewBox="0 0 1549.4 480" style="enable-background:new 0 0 1549.4 480;" xml:space="preserve">
<style type="text/css">
	.st0{filter:url(#Adobe_OpacityMaskFilter);}
	.st1{clip-path:url(#SVGID_00000007389562409360815660000004229014324108178305_);}
	
		.st2{opacity:3.000000e-02;clip-path:url(#SVGID_00000007389562409360815660000004229014324108178305_);mask:url(#SVGID_00000182528672413172999890000003734360158147624857_);}
	.st3{filter:url(#Adobe_OpacityMaskFilter_00000155855469243913353680000015565880957982374055_);}
	.st4{enable-background:new    ;}
	.st5{clip-path:url(#SVGID_00000124874506945939698900000012149601140418620841_);}
	.st6{opacity:3.000000e-02;}
	.st7{filter:url(#Adobe_OpacityMaskFilter_00000119796426856796888090000000530848213583785107_);}
	.st8{clip-path:url(#SVGID_00000082351912199769775500000016401805183658924468_);}
	.st9{clip-path:url(#SVGID_00000116237557459660736370000007683785869310623665_);fill:#FFFFFF;}
	.st10{fill-rule:evenodd;clip-rule:evenodd;fill:none;stroke:#28646E;stroke-width:34;stroke-miterlimit:10;}
	.st11{fill-rule:evenodd;clip-rule:evenodd;fill:none;stroke:#28646E;stroke-width:28;stroke-linecap:round;stroke-miterlimit:10;}
	.st12{fill-rule:evenodd;clip-rule:evenodd;fill:none;stroke:#28646E;stroke-width:30;stroke-linecap:round;stroke-miterlimit:10;}
</style>
<g>
	<g>
		<defs>
			<path id="SVGID_1_" d="M166.9,107.7h222.2c11.7,0,21.2,9.5,21.2,21.2v222.2c0,11.7-9.5,21.2-21.2,21.2H166.9
				c-11.7,0-21.2-9.5-21.2-21.2V128.9C145.7,117.2,155.2,107.7,166.9,107.7z"/>
		</defs>
		<use xlink:href="#SVGID_1_"  style="overflow:visible;fill:#28646E;"/>
		<clipPath id="SVGID_00000145736955722663149670000016423995608475904153_">
			<use xlink:href="#SVGID_1_"  style="overflow:visible;"/>
		</clipPath>
		<defs>
			<filter id="Adobe_OpacityMaskFilter" filterUnits="userSpaceOnUse" x="145.7" y="107.5" width="264.7" height="265">
				<feColorMatrix  type="matrix" values="1 0 0 0 0  0 1 0 0 0  0 0 1 0 0  0 0 0 1 0"/>
			</filter>
		</defs>
		
			<mask maskUnits="userSpaceOnUse" x="145.7" y="107.5" width="264.7" height="265" id="SVGID_00000132050735520593039960000017646930253619744416_">
			<g class="st0">
				<g>
					<defs>
						<rect id="SVGID_00000034080307030530149670000001077090982769702029_" x="145.7" y="107.7" width="264.6" height="264.6"/>
					</defs>
					
						<clipPath id="SVGID_00000062896267279338218020000001470353421692946349_" style="clip-path:url(#SVGID_00000145736955722663149670000016423995608475904153_);">
						<use xlink:href="#SVGID_00000034080307030530149670000001077090982769702029_"  style="overflow:visible;"/>
					</clipPath>
					<g transform="matrix(1 0 0 1 0 0)" style="clip-path:url(#SVGID_00000062896267279338218020000001470353421692946349_);">
						
							<image style="overflow:visible;" width="200" height="200" xlink:href="5D18110789824580.png"  transform="matrix(1.3229 0 0 -1.3229 145.713 372.2904)">
						</image>
					</g>
				</g>
			</g>
		</mask>
		
			<g style="opacity:3.000000e-02;clip-path:url(#SVGID_00000145736955722663149670000016423995608475904153_);mask:url(#SVGID_00000132050735520593039960000017646930253619744416_);">
			<defs>
				
					<filter id="Adobe_OpacityMaskFilter_00000062160667590483196710000006774597846131207609_" filterUnits="userSpaceOnUse" x="145.7" y="107.5" width="264.7" height="265">
					<feColorMatrix  type="matrix" values="1 0 0 0 0  0 1 0 0 0  0 0 1 0 0  0 0 0 1 0"/>
				</filter>
			</defs>
			
				<mask maskUnits="userSpaceOnUse" x="145.7" y="107.5" width="264.7" height="265" id="SVGID_00000132050735520593039960000017646930253619744416_">
				<g style="filter:url(#Adobe_OpacityMaskFilter_00000062160667590483196710000006774597846131207609_);">
					<rect x="144.7" y="106.7" width="266.6" height="266.6"/>
					<g class="st4">
						<g>
							<defs>
								<rect id="SVGID_00000119827346235752098700000012052992889761218996_" x="145.7" y="107.7" width="264.6" height="264.6"/>
							</defs>
							<clipPath id="SVGID_00000059295131004107196860000007855714102433871511_">
								<use xlink:href="#SVGID_00000119827346235752098700000012052992889761218996_"  style="overflow:visible;"/>
							</clipPath>
							<g>
								<defs>
									<rect id="SVGID_00000157281738106316014620000001994408532189312897_" x="145.7" y="107.7" width="264.6" height="264.6"/>
								</defs>
								
									<clipPath id="SVGID_00000148623134171705771430000000714644112506566826_" style="clip-path:url(#SVGID_00000059295131004107196860000007855714102433871511_);">
									<use xlink:href="#SVGID_00000157281738106316014620000001994408532189312897_"  style="overflow:visible;"/>
								</clipPath>
								<g transform="matrix(1 0 0 1 0 0)" style="clip-path:url(#SVGID_00000148623134171705771430000000714644112506566826_);">
									
										<image style="overflow:visible;" width="200" height="200" xlink:href="5D18110789824581.png"  transform="matrix(1.3229 0 0 -1.3229 145.7129 372.29)">
									</image>
								</g>
							</g>
						</g>
					</g>
				</g>
			</mask>
			<g class="st6">
				<g>
					<defs>
						<rect id="SVGID_00000073689425409750847300000010697260048393531035_" x="145.7" y="107.7" width="264.6" height="264.6"/>
					</defs>
					<clipPath id="SVGID_00000124877945956502827140000004080583259345652145_">
						<use xlink:href="#SVGID_00000073689425409750847300000010697260048393531035_"  style="overflow:visible;"/>
					</clipPath>
					<defs>
						
							<filter id="Adobe_OpacityMaskFilter_00000014611873947102916450000007020835386036848811_" filterUnits="userSpaceOnUse" x="145.7" y="107.5" width="264.7" height="265">
							<feColorMatrix  type="matrix" values="1 0 0 0 0  0 1 0 0 0  0 0 1 0 0  0 0 0 1 0"/>
						</filter>
					</defs>
					
						<mask maskUnits="userSpaceOnUse" x="145.7" y="107.5" width="264.7" height="265" id="SVGID_00000132050735520593039960000017646930253619744416_">
						<g style="filter:url(#Adobe_OpacityMaskFilter_00000014611873947102916450000007020835386036848811_);">
							<g>
								<defs>
									<rect id="SVGID_00000088853579919677359540000008963048916675339699_" x="145.7" y="107.7" width="264.6" height="264.6"/>
								</defs>
								
									<clipPath id="SVGID_00000075143015569398542060000002615156181274712511_" style="clip-path:url(#SVGID_00000124877945956502827140000004080583259345652145_);">
									<use xlink:href="#SVGID_00000088853579919677359540000008963048916675339699_"  style="overflow:visible;"/>
								</clipPath>
								<g transform="matrix(1 0 0 1 0 0)" style="clip-path:url(#SVGID_00000075143015569398542060000002615156181274712511_);">
									
										<image style="overflow:visible;" width="200" height="200" xlink:href="5D18110789824587.png"  transform="matrix(1.3229 0 0 -1.3229 145.7129 372.29)">
									</image>
								</g>
							</g>
						</g>
					</mask>
					<g style="clip-path:url(#SVGID_00000124877945956502827140000004080583259345652145_);">
						
							<image style="overflow:visible;" width="1103" height="1104" xlink:href="5D18110789824580.jpg"  transform="matrix(0.24 0 0 0.24 145.68 107.52)">
						</image>
					</g>
				</g>
			</g>
		</g>
	</g>
	<g>
		<defs>
			<polygon id="SVGID_00000090256963911274029460000007571212128251727790_" points="238.8,332.6 238.8,250.6 316.4,332.6 
				359.5,332.6 359.5,330.5 270.3,237.1 352.6,148.5 352.6,147.4 309.2,147.4 238.8,225.7 238.8,147.4 203.9,147.4 203.9,332.6 			
				"/>
		</defs>
		<use xlink:href="#SVGID_00000090256963911274029460000007571212128251727790_"  style="overflow:visible;fill:#FFFFFF;"/>
		<clipPath id="SVGID_00000105427937094931704440000017226783225709425792_">
			<use xlink:href="#SVGID_00000090256963911274029460000007571212128251727790_"  style="overflow:visible;"/>
		</clipPath>
		
			<rect x="197.3" y="140.8" style="clip-path:url(#SVGID_00000105427937094931704440000017226783225709425792_);fill:#FFFFFF;" width="168.8" height="198.4"/>
	</g>
</g>
<g>
	<path class="st10" d="M612.1,320.7c44.6,0,80.8-36.3,80.7-80.9c-0.2-44.6-37-80.4-81.5-80.4h-10.4c-12.5,0-22.6,10.1-22.6,22.6
		v116.1c0,12.5,10.1,22.6,22.6,22.6H612.1z"/>
	<g>
		<line class="st11" x1="578.2" y1="205.1" x2="489.6" y2="205.1"/>
		<line class="st11" x1="578.2" y1="274.9" x2="489.6" y2="274.9"/>
	</g>
</g>
<path class="st12" d="M696.6,246.6c151.7,47.6,140.6-58.6,237.1-68.3c97-9.8,97,110.4,197.7,123.3
	c122.1,15.5,126.9-130.6,302.2-107.4"/>
</svg>
