<svg xmlns="http://www.w3.org/2000/svg" xmlns:xlink="http://www.w3.org/1999/xlink" viewBox="0 0 1549.4 480">
  <defs>
    <style>
      .a {
        fill: #fff;
      }

      .a, .c {
        fill-rule: evenodd;
      }

      .b {
        mask: url(#a);
      }

      .c {
        fill: #28646e;
      }
    </style>
    <mask id="a" x="115.71" y="108.03" width="1317.99" height="263.93" maskUnits="userSpaceOnUse">
      <path class="a" d="M115.71,108h1318V372h-1318Z"/>
    </mask>
  </defs>
  <title>ledger-nano-s</title>
  <g class="b">
    <g>
      <path class="c" d="M238.25,275.35H527.76V215.07H238.25Zm298.56-78.41H229.2a9.06,9.06,0,0,0-9.06,9.05v78.42a9.06,9.06,0,0,0,9.06,9H536.81a9,9,0,0,0,9.06-9V206A9,9,0,0,0,536.81,196.94Z"/>
      <path class="c" d="M1397.48,335.11H754.81a89.91,89.91,0,1,1,0-179.81h642.67ZM151.93,154.65H667.21a125.64,125.64,0,0,0,0,181.1H151.93Zm1263.65-35.57H861.4a17,17,0,0,0-3.19-.65H570.05v-1.34A9.06,9.06,0,0,0,561,108H494.53a9,9,0,0,0-9,9.06v1.34H280.54v-1.34a9.06,9.06,0,0,0-9.05-9.06H205a9,9,0,0,0-9.05,9.06v1.34H133.82a18.1,18.1,0,0,0-18.11,18.11V353.86A18.11,18.11,0,0,0,133.82,372H858.21a16.5,16.5,0,0,0,3.14-.64h554.23a18.11,18.11,0,0,0,18.11-18.11v-216A18.11,18.11,0,0,0,1415.58,119.08Z"/>
      <path class="c" d="M759.78,202.12a43.09,43.09,0,1,1-18.6,4.25A43,43,0,0,1,759.78,202.12Zm-55.11,69.54a61.18,61.18,0,1,0,28.69-81.6A61.24,61.24,0,0,0,704.67,271.66Z"/>
      <path class="c" d="M306.45,245.2a12.68,12.68,0,1,1-12.68-12.68A12.67,12.67,0,0,1,306.45,245.2Z"/>
      <path class="c" d="M365.94,245.2a12.68,12.68,0,1,1-12.67-12.68A12.67,12.67,0,0,1,365.94,245.2Z"/>
      <path class="c" d="M425.44,245.2a12.68,12.68,0,1,1-12.68-12.68A12.67,12.67,0,0,1,425.44,245.2Z"/>
      <path class="c" d="M484.93,245.2a12.68,12.68,0,1,1-12.68-12.68A12.67,12.67,0,0,1,484.93,245.2Z"/>
    </g>
  </g>
</svg>
